# xmcd
#
# Track frame offsets: 
#        300
#        19182
#        35667
#        56777
#        81192
#        103367
#        121175
#        130437
#        139412
#        154542
#        173840
#        188982
#        205635
#        220040
#        241142
#        258892
#        284560
#        310235
#
# Disc length: 4429 seconds
#
# Revision: 0
# Processed by: cddbd v1.5.2PL0 Copyright (c) Steve Scherf et al.
# Submitted via: ExactAudioCopyFreeDBPlugin 1.0
#
DISCID=0b114912
DTITLE=Bill Withers - Best Of Bill Withers: Lean On Me
DYEAR=2000
DGENRE=R&B
TTITLE0=Lovely Day
TTITLE1=I Want To Spend The Night
TTITLE2=Let Me Be The One You Need
TTITLE3=Hello Like Before
TTITLE4=Tender Things
TTITLE5=I Wish You Well
TTITLE6=Ain't No Sunshine
TTITLE7=Grandma's Hands
TTITLE8=The Same Love That Made Me Laugh
TTITLE9=Lean On Me
TTITLE10=Harlem
TTITLE11=Use Me
TTITLE12=Who Is He (And What Is He To You)?
TTITLE13=You Just Can't Smile It Away
TTITLE14=Just The Two Of Us
TTITLE15=Steppin' Right Along
TTITLE16=You Try To Find A Love
TTITLE17=My Imagination
EXTD=
EXTT0=
EXTT1=
EXTT2=
EXTT3=
EXTT4=
EXTT5=
EXTT6=
EXTT7=
EXTT8=
EXTT9=
EXTT10=
EXTT11=
EXTT12=
EXTT13=
EXTT14=
EXTT15=
EXTT16=
EXTT17=
PLAYORDER=
